<?xml version="1.0" encoding="UTF-8" standalone="no"?>
<!-- Created with Inkscape (http://www.inkscape.org/) -->

<svg
   width="80.000008mm"
   height="79.999992mm"
   viewBox="0 0 80.000008 79.999992"
   version="1.1"
   id="svg1"
   xml:space="preserve"
   inkscape:version="1.3.2 (091e20e, 2023-11-25, custom)"
   sodipodi:docname="550w.host.svg"
   xmlns:inkscape="http://www.inkscape.org/namespaces/inkscape"
   xmlns:sodipodi="http://sodipodi.sourceforge.net/DTD/sodipodi-0.dtd"
   xmlns:xlink="http://www.w3.org/1999/xlink"
   xmlns="http://www.w3.org/2000/svg"
   xmlns:svg="http://www.w3.org/2000/svg"><sodipodi:namedview
     id="namedview1"
     pagecolor="#505050"
     bordercolor="#eeeeee"
     borderopacity="1"
     inkscape:showpageshadow="0"
     inkscape:pageopacity="0"
     inkscape:pagecheckerboard="0"
     inkscape:deskcolor="#505050"
     inkscape:document-units="mm"
     showgrid="false"
     showguides="false"
     inkscape:zoom="3.8890912"
     inkscape:cx="134.47872"
     inkscape:cy="166.23421"
     inkscape:window-width="3840"
     inkscape:window-height="2054"
     inkscape:window-x="2549"
     inkscape:window-y="-11"
     inkscape:window-maximized="1"
     inkscape:current-layer="layer1"><inkscape:grid
       id="grid2"
       units="mm"
       originx="-65.708847"
       originy="-109.01062"
       spacingx="0.99999998"
       spacingy="1"
       empcolor="#0099e5"
       empopacity="0.30196078"
       color="#0099e5"
       opacity="0.14901961"
       empspacing="5"
       dotted="false"
       gridanglex="30"
       gridanglez="30"
       visible="false" /></sodipodi:namedview><defs
     id="defs1"><linearGradient
       id="linearGradient19"
       inkscape:collect="always"><stop
         style="stop-color:#fa8000;stop-opacity:1;"
         offset="0"
         id="stop19" /><stop
         style="stop-color:#fc7700;stop-opacity:1;"
         offset="0.17898194"
         id="stop21" /><stop
         style="stop-color:#ff0000;stop-opacity:1;"
         offset="1"
         id="stop20" /></linearGradient><linearGradient
       id="linearGradient11"
       inkscape:collect="always"><stop
         style="stop-color:#b4b4b4;stop-opacity:1;"
         offset="0.82594413"
         id="stop17" /><stop
         style="stop-color:#5a5a5a;stop-opacity:1;"
         offset="0.93924469"
         id="stop16" /><stop
         style="stop-color:#323232;stop-opacity:1;"
         offset="1"
         id="stop11" /><stop
         style="stop-color:#323232;stop-opacity:0;"
         offset="1"
         id="stop12" /></linearGradient><radialGradient
       inkscape:collect="always"
       xlink:href="#linearGradient11"
       id="radialGradient12"
       cx="14.143713"
       cy="112.8503"
       fx="14.143713"
       fy="112.8503"
       r="26.886889"
       gradientTransform="matrix(1.2020262,0,0,1.1959511,88.707616,14.047137)"
       gradientUnits="userSpaceOnUse" /><radialGradient
       inkscape:collect="always"
       xlink:href="#linearGradient19"
       id="radialGradient20"
       cx="14.14384"
       cy="112.85048"
       fx="14.14384"
       fy="112.85048"
       r="3.0718563"
       gradientUnits="userSpaceOnUse"
       gradientTransform="matrix(1.0905173,0,0,1.0850058,90.284756,26.56735)" /></defs><g
     inkscape:label="Layer 1"
     inkscape:groupmode="layer"
     id="layer1"
     transform="translate(-65.708846,-109.01063)"><rect
       style="display:inline;opacity:1;fill:#d2d2d2;fill-opacity:1;stroke:#393939;stroke-width:0.507739;stroke-linecap:square;stroke-dasharray:none;stroke-opacity:1;paint-order:fill markers stroke"
       id="rect7"
       width="79.492035"
       height="79.492126"
       x="65.962715"
       y="109.2645"
       ry="11.790988" /><path
       id="path8-5"
       style="fill:url(#radialGradient12);fill-opacity:1;stroke:#323232;stroke-width:0.304644;stroke-linecap:square;stroke-dasharray:none;stroke-opacity:1;paint-order:fill markers stroke"
       d="m 83.032858,126.44902 a 32.068711,31.906631 0 0 0 0,45.12274 32.068711,31.906631 0 0 0 45.351942,0 l -1.08007,-1.07409 a 30.541629,30.387268 0 0 1 -43.192327,0 30.541629,30.387268 0 0 1 0,-42.97403 z" /><path
       id="path33"
       style="opacity:1;fill:#969696;fill-opacity:1;stroke:#323232;stroke-width:1.01548;stroke-linecap:round;stroke-dasharray:none;stroke-opacity:1;paint-order:stroke fill markers"
       d="m 132.07564,111.63486 c -2.0758,0.0305 -4.12833,0.61347 -5.89383,1.70377 -9.13798,3.86389 -18.27274,7.74111 -27.364254,11.70768 -1.066903,0.46548 -2.247965,0.74852 -3.303346,1.28451 -7.366862,3.21958 -12.916877,10.19868 -14.347639,18.07998 -0.688198,3.55295 -0.527383,7.24359 0.384575,10.74089 l 5.821232,-1.55199 a 19.00212,18.778642 0 0 0 0.108901,0.49517 l -5.803345,1.54728 c 0.543138,1.9226 1.322058,3.77775 2.311658,5.51491 l 5.17624,-2.97364 a 19.00212,18.778642 0 0 0 0.245686,0.44441 l -5.170452,2.96997 c 0.385266,0.64439 0.799519,1.27168 1.244738,1.87755 -0.766587,0.88517 -2.16461,1.64606 -1.918666,3.01133 0.265008,1.16817 1.458108,1.77743 2.175926,2.65643 0.861144,0.76717 1.648725,2.10481 2.999789,1.82627 1.031634,-0.2428 1.582068,-1.2557 2.350063,-1.89536 6.070277,4.46942 14.254774,5.96024 21.499364,3.7881 2.77156,-0.80522 5.40392,-2.08859 7.73411,-3.786 0.88365,0.76203 1.6444,2.14013 3.01031,1.89902 1.17654,-0.26111 1.78956,-1.45018 2.67308,-2.16598 0.76816,-0.85869 2.11704,-1.63936 1.8366,-2.98358 -0.24678,-1.02998 -1.27013,-1.58181 -1.91499,-2.35023 2.6996,-3.87265 4.15157,-8.41144 6.0785,-12.68911 3.2182,-7.41057 6.40226,-14.8405 9.61016,-22.25228 1.58173,-2.57514 2.05891,-5.78596 1.25579,-8.69949 -0.82226,-3.02983 -2.99023,-5.67018 -5.83386,-7.04073 -1.53723,-0.77297 -3.24993,-1.12923 -4.96634,-1.15888 z m -45.612353,25.99117 6.785035,3.8975 a 14.557569,14.483993 0 0 0 -0.266729,0.43131 l -6.761888,-3.88441 a 22.43214,22.318765 0 0 1 0.243582,-0.4444 z m -2.329545,5.33328 7.583121,2.02203 a 14.557569,14.483993 0 0 0 -0.119423,0.49203 L 84.025366,143.455 a 22.43214,22.318765 0 0 1 0.108376,-0.49569 z" /><path
       id="path1-8"
       style="fill:#5a5a5a;fill-opacity:1;stroke:#323232;stroke-width:1.08776;stroke-dasharray:none;stroke-opacity:1;paint-order:stroke markers fill"
       d="m 103.28395,128.79445 c -1.30679,0 -2.35898,1.04687 -2.35898,2.34705 v 3.12754 a 15.593747,15.514935 0 0 0 -10.809834,14.74173 15.593747,15.514935 0 0 0 10.809834,14.74116 v 3.12754 c 0,1.30019 1.05219,2.34705 2.35898,2.34705 h 4.84927 c 1.30678,0 2.35897,-1.04686 2.35897,-2.34705 v -3.12698 a 15.593747,15.514935 0 0 0 10.8104,-14.74172 15.593747,15.514935 0 0 0 -10.8104,-14.76248 v -3.10679 c 0,-1.30018 -1.05219,-2.34705 -2.35897,-2.34705 z" /><path
       id="path1-8-5"
       style="fill:#787878;fill-opacity:1;stroke:#323232;stroke-width:0.885084;stroke-dasharray:none;stroke-opacity:1;paint-order:stroke markers fill"
       d="m 118.55308,138.46931 c -0.57463,-0.89012 -1.75766,-1.14649 -2.65233,-0.57474 l -2.15203,1.37528 a 12.688245,12.624117 0 0 0 -14.897169,-0.88073 12.688245,12.624117 0 0 0 -5.389842,13.8454 l -2.152043,1.37528 c -0.894654,0.57174 -1.152309,1.74879 -0.577668,2.63892 l 2.132394,3.30311 c 0.574641,0.89012 1.757666,1.14649 2.652321,0.57475 l 2.151658,-1.37504 a 12.688245,12.624117 0 0 0 14.897409,0.88112 12.688245,12.624117 0 0 0 5.40426,-13.85516 l 2.13777,-1.36616 c 0.89465,-0.57174 1.15231,-1.74879 0.57767,-2.63892 z" /><ellipse
       style="opacity:1;fill:#5a5a5a;fill-opacity:1;stroke:#323232;stroke-width:1.03037;stroke-dasharray:none;stroke-opacity:1;paint-order:stroke markers fill"
       id="path1"
       cx="105.70872"
       cy="149.01057"
       rx="12.669025"
       ry="12.604995" /><ellipse
       style="fill:#787878;fill-opacity:1;stroke:#323232;stroke-width:0.604185;stroke-dasharray:none;stroke-opacity:1;paint-order:stroke markers fill"
       id="path1-7"
       cx="105.70872"
       cy="149.01057"
       rx="7.4288607"
       ry="7.3913145" /><ellipse
       style="fill:#323232;fill-opacity:1;stroke:#ff0000;stroke-width:0;stroke-dasharray:none;paint-order:stroke markers fill"
       id="path1-5"
       cx="105.70886"
       cy="149.01048"
       rx="6.8696079"
       ry="6.834888" /><ellipse
       style="opacity:1;fill:#787878;fill-opacity:1;stroke:#ff0000;stroke-width:0;stroke-dasharray:none;paint-order:stroke markers fill"
       id="path2"
       cx="105.70872"
       cy="149.01057"
       rx="4.2942009"
       ry="4.2724972" /><ellipse
       style="fill:url(#radialGradient20);stroke:none;stroke-width:0;stroke-dasharray:none;paint-order:stroke markers fill"
       id="path2-4"
       cx="105.70886"
       cy="149.01076"
       rx="3.3499126"
       ry="3.3329816" /><ellipse
       style="fill:#5a5a5a;fill-opacity:1;stroke:#323232;stroke-width:2.03096;stroke-dasharray:none;stroke-opacity:1;paint-order:stroke markers fill"
       id="path3-1"
       cx="132.11224"
       cy="122.74049"
       rx="6.8385377"
       ry="6.8039742" /><ellipse
       style="fill:#5a5a5a;fill-opacity:1;stroke:#323232;stroke-width:0.823295;stroke-dasharray:none;stroke-opacity:1;paint-order:stroke markers fill"
       id="path3-1-3"
       cx="132.11224"
       cy="122.74049"
       rx="4.6313033"
       ry="4.6078959" /><path
       id="rect8"
       style="opacity:1;fill:#6f503f;fill-opacity:1;stroke:#323232;stroke-width:0.507739;stroke-linecap:square;stroke-dasharray:none;stroke-opacity:1;paint-order:fill markers stroke"
       d="m 140.73118,141.24916 c -0.79349,0 -1.43256,0.6353 -1.43256,1.42479 v 9.34332 c 0,0.78948 0.63907,1.42479 1.43256,1.42479 h 4.7238 v -12.1929 z" /><rect
       style="opacity:1;fill:#323232;fill-opacity:1;stroke:#323232;stroke-width:0;stroke-linecap:square;stroke-dasharray:none;stroke-opacity:1;paint-order:fill markers stroke"
       id="rect9"
       width="1.5270815"
       height="8.1572609"
       x="126.41593"
       y="138.55122"
       inkscape:transform-center-y="29.748733"
       ry="0.7596817"
       inkscape:transform-center-x="-2.392647e-06" /><rect
       style="opacity:1;fill:#323232;fill-opacity:1;fill-rule:nonzero;stroke:#323232;stroke-width:0;stroke-linecap:square;stroke-dasharray:none;stroke-opacity:1;paint-order:fill markers stroke"
       id="rect10"
       width="5.7029467"
       height="5.6741233"
       x="129.26077"
       y="119.90343"
       ry="1.4185308" /><path
       style="opacity:1;fill:#787878;fill-opacity:1;fill-rule:nonzero;stroke:#323232;stroke-width:0.406191;stroke-linecap:round;stroke-linejoin:round;stroke-dasharray:none;stroke-opacity:1;paint-order:fill markers stroke"
       id="path17"
       sodipodi:type="arc"
       sodipodi:cx="87.305771"
       sodipodi:cy="118.61881"
       sodipodi:rx="6.0795617"
       sodipodi:ry="6.258389"
       sodipodi:start="3.1415927"
       sodipodi:end="1.5707963"
       sodipodi:arc-type="chord"
       d="m 81.226209,118.61881 a 6.0795617,6.258389 0 0 1 6.079562,-6.25839 6.0795617,6.258389 0 0 1 6.079562,6.25839 6.0795617,6.258389 0 0 1 -6.079562,6.25839 z"
       sodipodi:open="true" /><ellipse
       style="fill:#323232;fill-opacity:1;fill-rule:nonzero;stroke:#323232;stroke-width:0;stroke-linecap:round;stroke-linejoin:round;stroke-dasharray:none;stroke-opacity:1;paint-order:fill markers stroke"
       id="path17-8"
       cx="87.305771"
       cy="118.61881"
       rx="3.5778844"
       ry="3.6831267" /><ellipse
       style="fill:#5a5a5a;fill-opacity:1;fill-rule:nonzero;stroke:#323232;stroke-width:0;stroke-linecap:round;stroke-linejoin:round;stroke-dasharray:none;stroke-opacity:1;paint-order:fill markers stroke"
       id="path17-8-3"
       cx="87.305771"
       cy="118.61881"
       rx="2.2065976"
       ry="2.2715039" /><path
       id="path24"
       style="opacity:1;fill:#323232;fill-opacity:1;fill-rule:nonzero;stroke:#323232;stroke-width:0.507739;stroke-linecap:round;stroke-linejoin:round;stroke-dasharray:none;stroke-opacity:1;paint-order:fill markers stroke"
       d="m 69.832925,173.69438 -3.86995,1.03169 10e-7,2.23977 c 2e-6,6.5322 5.285424,11.79091 11.850797,11.79092 h 2.250631 l 1.036931,-3.8504 z" /><path
       id="path24-0"
       style="fill:#787878;fill-opacity:1;fill-rule:nonzero;stroke:#b4b4b4;stroke-width:0.507739;stroke-linecap:round;stroke-linejoin:round;stroke-dasharray:none;stroke-opacity:1;paint-order:fill markers stroke"
       d="m 69.004326,177.46154 -2.970327,0.79196 c 0.595203,5.49877 4.958419,9.84015 10.485056,10.43258 l 0.79598,-2.95583 z" /><ellipse
       style="opacity:1;fill:#323232;fill-opacity:1;fill-rule:nonzero;stroke:#1e1e1e;stroke-width:0.304644;stroke-linecap:round;stroke-linejoin:round;stroke-dasharray:none;stroke-opacity:1;paint-order:fill markers stroke"
       id="path34"
       cx="73.378311"
       cy="116.68016"
       rx="1.0180544"
       ry="1.0129089" /><ellipse
       style="fill:#323232;fill-opacity:1;fill-rule:nonzero;stroke:#323232;stroke-width:0;stroke-linecap:round;stroke-linejoin:round;stroke-dasharray:none;stroke-opacity:1;paint-order:fill markers stroke"
       id="path34-9"
       cx="87.305771"
       cy="118.61881"
       rx="1.0180544"
       ry="1.0129089" /><ellipse
       style="fill:#323232;fill-opacity:1;fill-rule:nonzero;stroke:#1e1e1e;stroke-width:0.304644;stroke-linecap:round;stroke-linejoin:round;stroke-dasharray:none;stroke-opacity:1;paint-order:fill markers stroke"
       id="path34-8"
       cx="138.03941"
       cy="181.34132"
       rx="1.0180544"
       ry="1.0129089" /><rect
       style="opacity:1;fill:#855039;fill-opacity:0.730038;fill-rule:nonzero;stroke:#323232;stroke-width:0.352371;stroke-linecap:round;stroke-linejoin:round;stroke-dasharray:none;stroke-opacity:0.5;paint-order:fill markers stroke"
       id="rect35"
       width="3.8431253"
       height="9.9887133"
       x="140.45512"
       y="142.35126"
       ry="1.132616" /></g></svg>
