<?xml version="1.0" encoding="UTF-8" standalone="no"?>
<!-- Created with Inkscape (http://www.inkscape.org/) -->

<svg
   width="80.000008mm"
   height="79.999992mm"
   viewBox="0 0 80.000008 79.999992"
   version="1.1"
   id="svg1"
   xml:space="preserve"
   inkscape:version="1.3.2 (091e20e, 2023-11-25, custom)"
   sodipodi:docname="550w.host.svg"
   xmlns:inkscape="http://www.inkscape.org/namespaces/inkscape"
   xmlns:sodipodi="http://sodipodi.sourceforge.net/DTD/sodipodi-0.dtd"
   xmlns:xlink="http://www.w3.org/1999/xlink"
   xmlns="http://www.w3.org/2000/svg"
   xmlns:svg="http://www.w3.org/2000/svg"><sodipodi:namedview
     id="namedview1"
     pagecolor="#505050"
     bordercolor="#eeeeee"
     borderopacity="1"
     inkscape:showpageshadow="0"
     inkscape:pageopacity="0"
     inkscape:pagecheckerboard="0"
     inkscape:deskcolor="#505050"
     inkscape:document-units="mm"
     showgrid="false"
     showguides="false"
     inkscape:zoom="3.8890913"
     inkscape:cx="134.73585"
     inkscape:cy="133.57876"
     inkscape:window-width="3840"
     inkscape:window-height="2054"
     inkscape:window-x="2549"
     inkscape:window-y="-11"
     inkscape:window-maximized="1"
     inkscape:current-layer="layer1"><inkscape:grid
       id="grid2"
       units="mm"
       originx="-65.708847"
       originy="-109.01062"
       spacingx="0.99999998"
       spacingy="1"
       empcolor="#0099e5"
       empopacity="0.30196078"
       color="#0099e5"
       opacity="0.14901961"
       empspacing="5"
       dotted="false"
       gridanglex="30"
       gridanglez="30"
       visible="false" /></sodipodi:namedview><defs
     id="defs1"><linearGradient
       id="linearGradient19"
       inkscape:collect="always"><stop
         style="stop-color:#fa8000;stop-opacity:1;"
         offset="0"
         id="stop19" /><stop
         style="stop-color:#fc7700;stop-opacity:1;"
         offset="0.17898194"
         id="stop21" /><stop
         style="stop-color:#ff0000;stop-opacity:1;"
         offset="1"
         id="stop20" /></linearGradient><linearGradient
       id="linearGradient11"
       inkscape:collect="always"><stop
         style="stop-color:#b4b4b4;stop-opacity:1;"
         offset="0.82594413"
         id="stop17" /><stop
         style="stop-color:#5a5a5a;stop-opacity:1;"
         offset="0.93924469"
         id="stop16" /><stop
         style="stop-color:#323232;stop-opacity:1;"
         offset="1"
         id="stop11" /><stop
         style="stop-color:#323232;stop-opacity:0;"
         offset="1"
         id="stop12" /></linearGradient><radialGradient
       inkscape:collect="always"
       xlink:href="#linearGradient11"
       id="radialGradient12"
       cx="14.143713"
       cy="112.8503"
       fx="14.143713"
       fy="112.8503"
       r="26.886889"
       gradientTransform="matrix(1.1994765,0,0,1.193413,87.704067,15.366676)"
       gradientUnits="userSpaceOnUse" /><radialGradient
       inkscape:collect="always"
       xlink:href="#linearGradient19"
       id="radialGradient20"
       cx="14.14384"
       cy="112.85048"
       fx="14.14384"
       fy="112.85048"
       r="3.0718563"
       gradientUnits="userSpaceOnUse"
       gradientTransform="matrix(0.98305877,0,0,0.97808929,90.824179,38.93449)" /></defs><g
     inkscape:label="Layer 1"
     inkscape:groupmode="layer"
     id="layer1"
     transform="translate(-65.708846,-109.01063)"><rect
       style="display:inline;opacity:1;fill:#e6e6e6;fill-opacity:1;stroke:#393939;stroke-width:0.993887;stroke-linecap:square;stroke-dasharray:none;stroke-opacity:1;paint-order:fill markers stroke"
       id="rect7"
       width="79.006111"
       height="79.006111"
       x="66.205788"
       y="109.50728"
       ry="11.718899" /><path
       id="path8-5"
       style="fill:url(#radialGradient12);fill-opacity:1;stroke:#323232;stroke-width:0.303998;stroke-linecap:square;stroke-dasharray:none;stroke-opacity:1;paint-order:fill markers stroke"
       d="m 82.04135,127.53002 a 32.000691,31.838918 0 0 0 0,45.02698 32.000691,31.838918 0 0 0 45.25574,0 l -1.07778,-1.07181 a 30.476849,30.32278 0 0 1 -43.100705,0 30.476849,30.32278 0 0 1 0,-42.88282 z" /><path
       id="path33-5"
       style="fill:#323232;fill-opacity:1;stroke:#323232;stroke-width:0;stroke-linecap:round;stroke-dasharray:none;stroke-opacity:1;paint-order:stroke fill markers"
       d="m 129.45107,116.09647 c -1.87125,0.0275 -3.72153,0.55302 -5.31305,1.53589 -8.23753,3.48314 -16.47217,6.9783 -24.667804,10.554 -0.961766,0.41962 -2.026456,0.67477 -2.97784,1.15794 -6.640936,2.90231 -11.644059,9.19369 -12.933835,16.29836 -0.620383,3.20285 -0.475415,6.52982 0.346679,9.68249 l 5.247614,-1.39905 a 17.12967,16.928194 0 0 0 0.09817,0.44637 l -5.231487,1.39481 c 0.489618,1.73315 1.191783,3.40549 2.083869,4.97147 l 4.666175,-2.68062 a 17.12967,16.928194 0 0 0 0.22148,0.40062 l -4.660962,2.67731 c 0.347302,0.5809 0.720738,1.14637 1.122087,1.69254 -0.691051,0.79794 -1.951315,1.48385 -1.729606,2.71459 0.238894,1.05306 1.314429,1.60228 1.961516,2.39467 0.776284,0.69157 1.486256,1.8974 2.704185,1.64631 0.929983,-0.21887 1.426174,-1.13196 2.118496,-1.7086 5.472121,4.029 12.850113,5.37292 19.380823,3.41483 2.49846,-0.72588 4.87143,-1.88278 6.97201,-3.41294 0.79657,0.68694 1.48235,1.92925 2.71368,1.7119 1.06059,-0.23538 1.61321,-1.30728 2.40967,-1.95255 0.69246,-0.77407 1.90842,-1.47781 1.65562,-2.68957 -0.22246,-0.92849 -1.14497,-1.42594 -1.72628,-2.11864 2.43357,-3.49104 3.74247,-7.58258 5.47952,-11.43872 2.90108,-6.68034 5.7714,-13.37812 8.66318,-20.05955 1.42587,-2.32138 1.85604,-5.21581 1.13206,-7.84223 -0.74124,-2.73127 -2.69559,-5.11145 -5.259,-6.34694 -1.38576,-0.6968 -2.92968,-1.01796 -4.47697,-1.04469 z m -41.117746,23.43 6.116441,3.51344 a 13.123081,13.056741 0 0 0 -0.240447,0.38881 l -6.095571,-3.50164 a 20.221699,20.119473 0 0 1 0.219577,-0.40061 z m -2.099994,4.80774 6.835892,1.82278 a 13.123081,13.056741 0 0 0 -0.10766,0.44354 l -6.825929,-1.81947 a 20.221699,20.119473 0 0 1 0.0977,-0.44685 z" /><path
       id="path33"
       style="opacity:1;fill:#969696;fill-opacity:1;stroke:#323232;stroke-width:0.915413;stroke-linecap:round;stroke-dasharray:none;stroke-opacity:1;paint-order:stroke fill markers"
       d="m 128.49702,115.61945 c -1.87125,0.0275 -3.72153,0.55302 -5.31305,1.53588 -8.23754,3.48315 -16.47217,6.97829 -24.667803,10.55401 -0.961772,0.41961 -2.026453,0.67476 -2.977838,1.15793 -6.640938,2.90232 -11.644061,9.1937 -12.933836,16.29837 -0.620384,3.20285 -0.475416,6.52981 0.346679,9.68248 l 5.247614,-1.39905 a 17.12967,16.928194 0 0 0 0.09817,0.44638 l -5.231488,1.39481 c 0.489618,1.73314 1.191783,3.40548 2.083869,4.97147 l 4.666179,-2.68063 a 17.12967,16.928194 0 0 0 0.221476,0.40063 l -4.660961,2.6773 c 0.347301,0.5809 0.720735,1.14637 1.122083,1.69254 -0.691049,0.79795 -1.951312,1.48386 -1.729602,2.71459 0.238894,1.05306 1.314427,1.60228 1.961511,2.39466 0.776288,0.69157 1.486261,1.89741 2.704193,1.64632 0.929979,-0.21887 1.426173,-1.13196 2.118491,-1.70859 5.472117,4.029 12.850113,5.37291 19.380823,3.41482 2.49846,-0.72587 4.87143,-1.88278 6.97201,-3.41293 0.79656,0.68694 1.48235,1.92924 2.71367,1.71189 1.0606,-0.23537 1.61322,-1.30728 2.40968,-1.95254 0.69246,-0.77408 1.90842,-1.47782 1.65562,-2.68958 -0.22246,-0.92849 -1.14498,-1.42593 -1.72628,-2.11864 2.43357,-3.49104 3.74247,-7.58258 5.47952,-11.43872 2.90108,-6.68033 5.7714,-13.37811 8.66318,-20.05954 1.42587,-2.32139 1.85603,-5.21581 1.13205,-7.84224 -0.74124,-2.73127 -2.69558,-5.11144 -5.25899,-6.34693 -1.38576,-0.6968 -2.92969,-1.01796 -4.47697,-1.04469 z m -41.117745,23.42999 6.116445,3.51344 a 13.123081,13.056741 0 0 0 -0.240446,0.38882 l -6.095578,-3.50164 a 20.221699,20.119473 0 0 1 0.219579,-0.40062 z m -2.099994,4.80775 6.835889,1.82277 a 13.123081,13.056741 0 0 0 -0.107655,0.44354 l -6.82593,-1.81947 a 20.221699,20.119473 0 0 1 0.0977,-0.44684 z" /><path
       id="path1-8"
       style="fill:#5a5a5a;fill-opacity:1;stroke:#323232;stroke-width:0.980572;stroke-dasharray:none;stroke-opacity:1;paint-order:stroke markers fill"
       d="m 102.54244,131.08813 c -1.17801,0 -2.12652,0.94371 -2.12652,2.11577 v 2.81935 a 14.057155,13.986093 0 0 0 -9.744644,13.28909 14.057155,13.986093 0 0 0 9.744644,13.28856 v 2.81935 c 0,1.17207 0.94851,2.11577 2.12652,2.11577 h 4.37143 c 1.178,0 2.12651,-0.9437 2.12651,-2.11577 v -2.81885 a 14.057155,13.986093 0 0 0 9.74516,-13.28906 14.057155,13.986093 0 0 0 -9.74516,-13.30779 v -2.80065 c 0,-1.17206 -0.94851,-2.11577 -2.12651,-2.11577 z" /><path
       id="path1-8-5"
       style="fill:#969696;fill-opacity:1;stroke:#323232;stroke-width:0.797869;stroke-dasharray:none;stroke-opacity:1;paint-order:stroke markers fill"
       d="m 116.30696,139.80962 c -0.518,-0.8024 -1.58445,-1.0335 -2.39097,-0.5181 l -1.93996,1.23976 a 11.437958,11.380136 0 0 0 -13.429218,-0.79394 11.437958,11.380136 0 0 0 -4.858732,12.48107 l -1.939982,1.23976 c -0.806496,0.5154 -1.038762,1.57646 -0.520746,2.37889 l 1.92227,2.97762 c 0.518017,0.80241 1.584467,1.03351 2.390963,0.51811 l 1.939636,-1.23955 a 11.437958,11.380136 0 0 0 13.429419,0.7943 11.437958,11.380136 0 0 0 4.87173,-12.48987 l 1.92712,-1.23155 c 0.8065,-0.51539 1.03876,-1.57645 0.52075,-2.37887 z" /><path
       id="path1-8-5-9"
       style="fill:#787878;fill-opacity:1;stroke:#323232;stroke-width:0.797869;stroke-dasharray:none;stroke-opacity:1;paint-order:stroke markers fill"
       d="m 119.56464,147.25053 c -0.0229,-0.95481 -0.81202,-1.70859 -1.76898,-1.68993 l -2.30185,0.0449 a 11.437954,11.38014 31.458505 0 0 -11.04025,-7.68681 11.437954,11.38014 31.458505 0 0 -10.659034,8.10985 l -2.301859,0.0449 c -0.956933,0.0187 -1.708889,0.80248 -1.685873,1.75729 l 0.08541,3.54317 c 0.02302,0.95482 0.812039,1.70859 1.768971,1.68994 l 2.301446,-0.0449 a 11.437954,11.38014 31.458505 0 0 11.040249,7.6872 11.437954,11.38014 31.458505 0 0 10.67473,-8.11055 l 2.28658,-0.0445 c 0.95693,-0.0187 1.7089,-0.80247 1.68588,-1.75728 z" /><ellipse
       style="opacity:1;fill:#5a5a5a;fill-opacity:1;stroke:#323232;stroke-width:0.741914;stroke-dasharray:none;stroke-opacity:1;paint-order:stroke markers fill"
       id="path1"
       cx="104.72828"
       cy="149.31215"
       rx="9.1222878"
       ry="9.0761738" /><ellipse
       style="fill:#787878;fill-opacity:1;stroke:#323232;stroke-width:0.571761;stroke-dasharray:none;stroke-opacity:1;paint-order:stroke markers fill"
       id="path1-7"
       cx="104.72828"
       cy="149.31215"
       rx="7.0301976"
       ry="6.9946585" /><ellipse
       style="fill:#323232;fill-opacity:1;stroke:#ff0000;stroke-width:0;stroke-dasharray:none;paint-order:stroke markers fill"
       id="path1-5"
       cx="104.72842"
       cy="149.31207"
       rx="6.1926837"
       ry="6.1613784" /><ellipse
       style="opacity:1;fill:#787878;fill-opacity:1;stroke:#ff0000;stroke-width:0;stroke-dasharray:none;paint-order:stroke markers fill"
       id="path2"
       cx="104.72828"
       cy="149.31215"
       rx="3.8710549"
       ry="3.851485" /><ellipse
       style="fill:url(#radialGradient20);stroke:none;stroke-width:0;stroke-dasharray:none;paint-order:stroke markers fill"
       id="path2-4"
       cx="104.72842"
       cy="149.31232"
       rx="3.0198154"
       ry="3.0045493" /><ellipse
       style="fill:#5a5a5a;fill-opacity:1;stroke:#323232;stroke-width:1.83083;stroke-dasharray:none;stroke-opacity:1;paint-order:stroke markers fill"
       id="path3-1"
       cx="128.53004"
       cy="125.63073"
       rx="6.1646757"
       ry="6.1335106" /><ellipse
       style="fill:#5a5a5a;fill-opacity:1;stroke:#323232;stroke-width:0.742168;stroke-dasharray:none;stroke-opacity:1;paint-order:stroke markers fill"
       id="path3-1-3"
       cx="128.53004"
       cy="125.63073"
       rx="4.1749392"
       ry="4.1538339" /><path
       id="rect8"
       style="opacity:1;fill:#6f503f;fill-opacity:1;stroke:#323232;stroke-width:0.504635;stroke-linecap:square;stroke-dasharray:none;stroke-opacity:1;paint-order:fill markers stroke"
       d="m 140.5172,141.29639 c -0.78864,0 -1.4238,0.63142 -1.4238,1.41608 v 9.2862 c 0,0.78465 0.63516,1.41607 1.4238,1.41607 h 4.69493 v -12.11835 z" /><rect
       style="opacity:1;fill:#323232;fill-opacity:1;stroke:#323232;stroke-width:0;stroke-linecap:square;stroke-dasharray:none;stroke-opacity:1;paint-order:fill markers stroke"
       id="rect9"
       width="1.4692674"
       height="7.8484254"
       x="124.14006"
       y="137.55814"
       inkscape:transform-center-y="0.11614385"
       ry="0.7309199"
       inkscape:transform-center-x="0.065467269" /><rect
       style="opacity:1;fill:#323232;fill-opacity:1;fill-rule:nonzero;stroke:#323232;stroke-width:0;stroke-linecap:square;stroke-dasharray:none;stroke-opacity:1;paint-order:fill markers stroke"
       id="rect10"
       width="5.1409841"
       height="5.114995"
       x="125.95956"
       y="123.07323"
       ry="1.2787488" /><path
       style="fill:#323232;fill-opacity:1;fill-rule:nonzero;stroke:#323232;stroke-width:0;stroke-linecap:round;stroke-linejoin:round;stroke-dasharray:none;stroke-opacity:1;paint-order:fill markers stroke"
       id="path17-6"
       sodipodi:type="arc"
       sodipodi:cx="86.356812"
       sodipodi:cy="119.85952"
       sodipodi:rx="6.042398"
       sodipodi:ry="6.2201252"
       sodipodi:start="3.1415927"
       sodipodi:end="1.5707963"
       sodipodi:arc-type="chord"
       d="m 80.314414,119.85952 a 6.042398,6.2201252 0 0 1 6.042398,-6.22013 6.042398,6.2201252 0 0 1 6.042397,6.22013 6.042398,6.2201252 0 0 1 -6.042397,6.22013 z"
       sodipodi:open="true" /><path
       style="opacity:1;fill:#787878;fill-opacity:1;fill-rule:nonzero;stroke:#323232;stroke-width:0.403708;stroke-linecap:round;stroke-linejoin:round;stroke-dasharray:none;stroke-opacity:1;paint-order:fill markers stroke"
       id="path17"
       sodipodi:type="arc"
       sodipodi:cx="85.830879"
       sodipodi:cy="119.33358"
       sodipodi:rx="6.042398"
       sodipodi:ry="6.2201252"
       sodipodi:start="3.1415927"
       sodipodi:end="1.5707963"
       sodipodi:arc-type="chord"
       d="m 79.788481,119.33358 a 6.042398,6.2201252 0 0 1 6.042398,-6.22013 6.042398,6.2201252 0 0 1 6.042398,6.22013 6.042398,6.2201252 0 0 1 -6.042398,6.22013 z"
       sodipodi:open="true" /><ellipse
       style="fill:#323232;fill-opacity:1;fill-rule:nonzero;stroke:#323232;stroke-width:0;stroke-linecap:round;stroke-linejoin:round;stroke-dasharray:none;stroke-opacity:1;paint-order:fill markers stroke"
       id="path17-8"
       cx="85.830872"
       cy="119.33358"
       rx="3.5560133"
       ry="3.6606083" /><ellipse
       style="fill:#5a5a5a;fill-opacity:1;fill-rule:nonzero;stroke:#323232;stroke-width:0;stroke-linecap:round;stroke-linejoin:round;stroke-dasharray:none;stroke-opacity:1;paint-order:fill markers stroke"
       id="path17-8-3"
       cx="85.830872"
       cy="119.33358"
       rx="2.193109"
       ry="2.257616" /><path
       id="path24"
       style="opacity:1;fill:#323232;fill-opacity:1;fill-rule:nonzero;stroke:#323232;stroke-width:0.504635;stroke-linecap:round;stroke-linejoin:round;stroke-dasharray:none;stroke-opacity:1;paint-order:fill markers stroke"
       d="m 70.052339,173.54324 -3.846293,1.02538 10e-7,2.22608 c 2e-6,6.49226 5.253115,11.71882 11.778355,11.71883 h 2.236873 l 1.030592,-3.82686 z" /><path
       id="path24-0"
       style="fill:#787878;fill-opacity:1;fill-rule:nonzero;stroke:#b4b4b4;stroke-width:0.993887;stroke-linecap:round;stroke-linejoin:round;stroke-dasharray:none;stroke-opacity:1;paint-order:fill markers stroke"
       d="m 69.228806,177.28737 -2.95217,0.78712 c 0.591564,5.46515 4.928109,9.77998 10.420962,10.3688 l 0.791115,-2.93777 z" /><ellipse
       style="opacity:1;fill:#323232;fill-opacity:1;fill-rule:nonzero;stroke:#1e1e1e;stroke-width:0.302781;stroke-linecap:round;stroke-linejoin:round;stroke-dasharray:none;stroke-opacity:1;paint-order:fill markers stroke"
       id="path34"
       cx="73.576057"
       cy="116.87761"
       rx="1.0118312"
       ry="1.006716" /><ellipse
       style="fill:#323232;fill-opacity:1;fill-rule:nonzero;stroke:#1e1e1e;stroke-width:0.53835;stroke-linecap:round;stroke-linejoin:round;stroke-dasharray:none;stroke-opacity:1;paint-order:fill markers stroke"
       id="path34-4"
       cx="114.88538"
       cy="128.18822"
       rx="1.7990547"
       ry="1.7899598" /><ellipse
       style="fill:#323232;fill-opacity:1;fill-rule:nonzero;stroke:#323232;stroke-width:0;stroke-linecap:round;stroke-linejoin:round;stroke-dasharray:none;stroke-opacity:1;paint-order:fill markers stroke"
       id="path34-9"
       cx="85.830872"
       cy="119.33358"
       rx="1.0118312"
       ry="1.006716" /><ellipse
       style="fill:#323232;fill-opacity:1;fill-rule:nonzero;stroke:#1e1e1e;stroke-width:0.274624;stroke-linecap:round;stroke-linejoin:round;stroke-dasharray:none;stroke-opacity:1;paint-order:fill markers stroke"
       id="path34-8"
       cx="135.41142"
       cy="177.97708"
       rx="0.91773629"
       ry="0.91309685" /><rect
       style="opacity:1;fill:#855039;fill-opacity:0.730038;fill-rule:nonzero;stroke:#323232;stroke-width:0.350217;stroke-linecap:round;stroke-linejoin:round;stroke-dasharray:none;stroke-opacity:0.5;paint-order:fill markers stroke"
       id="rect35"
       width="3.819633"
       height="9.9276428"
       x="140.24283"
       y="142.39175"
       ry="1.1256913" /><text
       xml:space="preserve"
       style="font-size:3.175px;font-family:'Cascadia Code';-inkscape-font-specification:'Cascadia Code';text-align:center;text-anchor:middle;fill:#323232;stroke:#323232;stroke-width:0;stroke-linecap:round;stroke-linejoin:round;stroke-opacity:0.5;paint-order:fill markers stroke"
       x="113.30482"
       y="135.44887"
       id="text1"><tspan
         sodipodi:role="line"
         id="tspan1"
         style="stroke-width:0"
         x="113.30482"
         y="135.44887" /></text></g></svg>
